inDegrees=yes
name=ik_S47_A05_T02
DataType=double
version=3
OpenSimVersion=4.3-2021-08-27-4bc7ad9
endheader
time	pelvis_tilt	pelvis_list	pelvis_rotation	pelvis_tx	pelvis_ty	pelvis_tz	hip_flexion_r	hip_adduction_r	hip_rotation_r	knee_angle_r	knee_angle_r_beta	ankle_angle_r	subtalar_angle_r	mtp_angle_r	hip_flexion_l	hip_adduction_l	hip_rotation_l	knee_angle_l	knee_angle_l_beta	ankle_angle_l	subtalar_angle_l	mtp_angle_l	lumbar_extension	lumbar_bending	lumbar_rotation	arm_flex_r	arm_add_r	arm_rot_r	elbow_flex_r	pro_sup_r	wrist_flex_r	wrist_dev_r	arm_flex_l	arm_add_l	arm_rot_l	elbow_flex_l	pro_sup_l	wrist_flex_l	wrist_dev_l
16.11999999999975	-14.20920357685535	-7.929223471094736	29.5803207742986	0	0.9399999999999999	0	42.79301644810244	-10.45128007420476	-10.36373235555679	54.29559523721829	0.9476369062196107	0	0	0	42.79301644810244	-10.45128007420476	-10.36373235555679	54.29559523721829	0.9476369062196107	0	0	0	-14.29916382485931	-5.351998035842608	3.493654179412224	86.16328156773942	24.37152497217704	30.56621870076122	18.67107640332508	76.5539274068838	0	0	51.73445185449899	3.111274198117887	27.11301006393177	26.28115679486874	108.1357098965073	0	0
16.13999999999974	-14.2175734850388	-7.926395291132367	29.55194491807566	0	0.9399999999999999	0	42.79329397691301	-10.45108472021663	-10.36363089325017	54.295655298223	0.9476379544818951	0	0	0	42.79329397691301	-10.45108472021663	-10.36363089325017	54.295655298223	0.9476379544818951	0	0	0	-14.30452908079945	-5.347199467960394	3.502468690903337	86.19863334540003	24.37409466182323	30.57652197214076	18.73264789764711	76.60131446737098	0	0	51.7173394692637	3.057182346928672	27.25106717052158	26.29105690179308	108.0946949869076	0	0
16.15999999999974	-14.22736955462761	-7.944097118525484	29.54203383298687	0	0.9399999999999999	0	42.79398571922302	-10.45059534382723	-10.36337715081663	54.2958042854804	0.9476405548000801	0	0	0	42.79398571922302	-10.45059534382723	-10.36337715081663	54.2958042854804	0.9476405548000801	0	0	0	-14.32360958412905	-5.354076573274098	3.493606348959324	86.50387814199686	24.43162340883971	30.63510969443561	18.70224007517368	76.58999392487911	0	0	51.72337873193145	2.984076282867816	27.39933996767833	26.3358974366104	107.9687393792127	0	0
16.17999999999974	-14.24311333815892	-7.966972082401279	29.54283011237179	0	0.9399999999999999	0	42.79479028071492	-10.45002732003058	-10.36308238203748	54.29597778202195	0.9476435828859711	0	0	0	42.79479028071492	-10.45002732003058	-10.36308238203748	54.29597778202195	0.9476435828859711	0	0	0	-14.35441808433379	-5.35246116475777	3.454883136544523	86.83285836809175	24.60252963868886	30.91541302647702	18.42049294135375	76.18754774752028	0	0	51.7388411937829	2.919751424599116	27.55788565977411	26.38615313453821	107.8890328867399	0	0
16.19999999999974	-14.24347870504859	-7.969677192884494	29.57435107542743	0	0.9399999999999999	0	42.79566239462081	-10.44940972822001	-10.36276216496352	54.29616514831138	0.9476468530446289	0	0	0	42.79566239462081	-10.44940972822001	-10.36276216496352	54.29616514831138	0.9476468530446289	0	0	0	-14.36193673386287	-5.340473919836626	3.413888095604045	87.17908531860296	24.71530208858906	31.37545826707682	18.11525469012206	75.59975914526021	0	0	51.6918451585081	2.846910401148473	27.70762087990254	26.43072785946021	107.80128865328	0	0
16.21999999999974	-14.26688932633555	-8.007382940292343	29.5914131384449	0	0.9399999999999999	0	42.79647733626911	-10.44883246483413	-10.36246283909576	54.2963400520805	0.9476499056912741	0	0	0	42.79647733626911	-10.44883246483413	-10.36246283909576	54.2963400520805	0.9476499056912741	0	0	0	-14.40550545459383	-5.35065593665179	3.381829870760479	87.67397373177104	24.76511173588891	31.84783294112628	17.95350010267896	75.32367663104395	0	0	51.72664055547125	2.775007083059539	27.87587979656791	26.48260569755847	107.7361967617662	0	0
16.23999999999974	-14.26222965094495	-8.034484891899156	29.70584275831329	0	0.9399999999999999	0	42.79726013777734	-10.4482780228186	-10.36217528546348	54.29650792359685	0.9476528356019547	0	0	0	42.79726013777734	-10.4482780228186	-10.36217528546348	54.29650792359685	0.9476528356019547	0	0	0	-14.42995652285911	-5.335987952356818	3.260794310176874	88.34166750467919	25.12282823636578	33.07429692050575	17.2122171301509	73.97611395685985	0	0	51.72179050063225	2.721742388840207	28.00695434563067	26.52645672420342	107.6381378573774	0	0
16.25999999999974	-14.25291900109288	-8.046690833444575	29.75741134068294	0	0.9399999999999999	0	42.79827032142481	-10.44756169701824	-10.36180386165107	54.29672415397981	0.9476566095340803	0	0	0	42.79827032142481	-10.44756169701824	-10.36180386165107	54.29672415397981	0.9476566095340803	0	0	0	-14.43146990803906	-5.341107987559933	3.229762353880856	88.74569919517089	25.20690556900539	33.67980188994359	16.50352319062953	73.67616106349759	0	0	51.67941435150485	2.699717215310892	28.10723141665829	26.53940296005963	107.6070570091641	0	0
16.27999999999974	-14.24711884446838	-8.08269854466624	29.83140086314625	0	0.9399999999999999	0	42.79923871020704	-10.44687515888186	-10.36144778207209	54.29693126591936	0.9476602243193456	0	0	0	42.79923871020704	-10.44687515888186	-10.36144778207209	54.29693126591936	0.9476602243193456	0	0	0	-14.45087261674035	-5.357120575110889	3.174764667245721	89.12616500759252	25.42452216055847	34.18738917096842	15.99162510659101	73.11145496686832	0	0	51.6828307787634	2.699971614165477	28.12781704945393	26.55359172151801	107.6368241085016	0	0
16.29999999999974	-14.23654286802534	-8.112557116875998	29.90805753164969	0	0.9399999999999999	0	42.80019123361009	-10.44620097078974	-10.3610978527951	54.2971351218948	0.9476637822773168	0	0	0	42.80019123361009	-10.44620097078974	-10.3610978527951	54.2971351218948	0.9476637822773168	0	0	0	-14.46150968743726	-5.374724670153211	3.132391254574398	89.50333615514401	25.61212809505731	34.62099112272922	15.27661284740442	72.73126217987507	0	0	51.69165054333669	2.676389596971402	28.19175501165693	26.55322706552185	107.6363804744227	0	0
16.31999999999974	-14.24054274068323	-8.147635237287201	29.99260350767834	0	0.9399999999999999	0	42.80085069855505	-10.44573526320551	-10.36085590682539	54.2972764432438	0.9476662488001604	0	0	0	42.80085069855505	-10.44573526320551	-10.36085590682539	54.2972764432438	0.9476662488001604	0	0	0	-14.48681920381861	-5.391435422103636	3.096183704591216	89.85320164712277	25.80512157689404	35.03153036025513	14.58158457479109	72.38717621589618	0	0	51.6992839955563	2.711972221242169	28.14348976564709	26.58673626699042	107.7234320443834	0	0
